HIERARCHY
ROOT Hips
{
	OFFSET 0.000000 0.000000 0.000000
	CHANNELS 6 Xposition Yposition Zposition Yrotation Xrotation Zrotation
	JOINT Chest
	{
		OFFSET 0.000000 -0.009281 11.569106
		CHANNELS 3 Yrotation Xrotation Zrotation
		JOINT Chest2
		{
			OFFSET -0.000000 0.016865 9.269641
			CHANNELS 3 Yrotation Xrotation Zrotation
			JOINT Chest3
			{
				OFFSET -0.000000 0.000001 8.374491
				CHANNELS 3 Yrotation Xrotation Zrotation
				JOINT Chest4
				{
					OFFSET -0.000000 0.000001 8.374493
					CHANNELS 3 Yrotation Xrotation Zrotation
					JOINT Neck
					{
						OFFSET -0.000000 0.000002 12.152554
						CHANNELS 3 Yrotation Xrotation Zrotation
						JOINT Head
						{
							OFFSET -0.000000 0.040101 7.802319
							CHANNELS 3 Yrotation Xrotation Zrotation
							End Site
							{
								OFFSET -0.000000 0.020947 14.853096
							}
						}
					}
					JOINT RightCollar
					{
						OFFSET 2.894404 0.000001 6.791374
						CHANNELS 3 Yrotation Xrotation Zrotation
						JOINT RightShoulder
						{
							OFFSET 13.574684 0.000001 0.000000
							CHANNELS 3 Yrotation Xrotation Zrotation
							JOINT RightElbow
							{
								OFFSET 23.923903 0.000002 0.000000
								CHANNELS 3 Yrotation Xrotation Zrotation
								JOINT RightWrist
								{
									OFFSET 19.846718 0.012767 0.000000
									CHANNELS 3 Yrotation Xrotation Zrotation
									End Site
									{
										OFFSET 14.973145 0.000001 0.000000
									}
								}
							}
						}
					}
					JOINT LeftCollar
					{
						OFFSET -2.894404 0.000001 6.791374
						CHANNELS 3 Yrotation Xrotation Zrotation
						JOINT LeftShoulder
						{
							OFFSET -13.574684 -0.000001 0.000000
							CHANNELS 3 Yrotation Xrotation Zrotation
							JOINT LeftElbow
							{
								OFFSET -23.923903 -0.000002 0.000000
								CHANNELS 3 Yrotation Xrotation Zrotation
								JOINT LeftWrist
								{
									OFFSET -19.846718 0.012763 0.000000
									CHANNELS 3 Yrotation Xrotation Zrotation
									End Site
									{
										OFFSET -14.973145 -0.000001 0.000000
									}
								}
							}
						}
					}
				}
			}
		}
	}
	JOINT RightHip
	{
		OFFSET 9.469263 0.004643 0.045487
		CHANNELS 3 Yrotation Xrotation Zrotation
		JOINT RightKnee
		{
			OFFSET 0.000000 0.002661 -40.478676
			CHANNELS 3 Yrotation Xrotation Zrotation
			JOINT RightAnkle
			{
				OFFSET 0.000000 0.049106 -35.224068
				CHANNELS 3 Yrotation Xrotation Zrotation
				JOINT RightToe
				{
					OFFSET -0.000001 12.539529 -6.151390
					CHANNELS 3 Yrotation Xrotation Zrotation
					End Site
					{
						OFFSET -0.000001 5.044994 -1.291870
					}
				}
			}
		}
	}
	JOINT LeftHip
	{
		OFFSET -9.469263 0.004641 0.045487
		CHANNELS 3 Yrotation Xrotation Zrotation
		JOINT LeftKnee
		{
			OFFSET 0.000000 0.002661 -40.478676
			CHANNELS 3 Yrotation Xrotation Zrotation
			JOINT LeftAnkle
			{
				OFFSET 0.000000 0.049106 -35.224068
				CHANNELS 3 Yrotation Xrotation Zrotation
				JOINT LeftToe
				{
					OFFSET -0.000001 12.539529 -6.151390
					CHANNELS 3 Yrotation Xrotation Zrotation
					End Site
					{
						OFFSET -0.000001 5.044994 -1.291870
					}
				}
			}
		}
	}
}
MOTION
Frames: 11
Frame Time: 0.016667
32.496174 22.769148 83.373833 -2.510457 -0.406371 -114.466150 -2.026200 -3.639197 2.084329 -0.883155 -1.694620 0.985132 -0.883155 -1.694620 0.985136 -0.659588 -1.272395 0.736352 1.741734 -12.487394 -5.213523 1.132678 12.940435 -9.203075 9.313559 4.855015 -1.862360 42.360697 -15.071933 -12.648278 -25.918782 -61.630224 85.678050 -41.036002 38.090404 51.622218 -8.317497 5.326058 -7.242359 -40.247709 -9.655652 21.203747 -0.940646 -63.751811 -62.451070 27.819594 11.992276 -73.487125 -5.243887 5.172495 -4.193374 3.519953 -22.602161 -13.242058 1.285795 10.148413 -3.318122 -1.644641 1.470701 -0.059427 3.178035 -0.463215 9.949707 -0.909511 -7.379441 11.109134 1.674055 0.651152 11.628123 0.275302 -0.555212 -0.118608 
31.770910 22.718555 83.327812 -2.434719 -0.444050 -114.544533 -1.963952 -3.712580 2.170456 -0.887222 -1.731370 1.030516 -0.887222 -1.731369 1.030513 -0.662449 -1.300030 0.770320 1.684916 -12.390515 -5.264512 0.996925 13.114302 -9.328401 9.374794 4.779461 -1.797639 42.312568 -15.218464 -12.537628 -25.930772 -61.594407 85.786520 -41.201965 38.325933 51.536639 -8.253292 5.266463 -7.174738 -40.303942 -9.513147 21.034829 -0.650136 -63.568550 -62.614209 27.776948 11.675584 -73.553296 -4.957185 6.034389 -2.310444 1.943634 -24.100633 -8.019615 2.315101 10.521261 -3.787064 -1.649085 1.430399 -0.075195 3.509321 0.079296 9.568405 -0.699730 -7.518783 9.637963 1.364085 0.601889 12.167483 0.268941 -0.706295 -0.147330 
31.061117 22.838671 83.140884 -2.491838 -0.304449 -114.589121 -2.127131 -3.845126 2.271064 -0.867702 -1.777461 1.070901 -0.867702 -1.777461 1.070902 -0.647611 -1.334624 0.800590 1.634406 -12.260932 -5.304645 0.875204 13.349518 -9.432244 9.308699 4.392533 -1.811309 42.338720 -15.134086 -12.244270 -25.337302 -61.578349 85.275404 -41.394139 38.538594 51.450026 -8.167188 5.169614 -7.108660 -40.321448 -9.359249 20.741184 -0.116376 -63.452785 -63.070049 27.785645 11.402318 -73.457995 -4.770593 6.398979 0.285978 -0.007453 -24.574700 -3.651187 3.738861 10.236944 -2.948851 -1.613527 1.590857 -0.121266 3.653524 0.527213 9.055720 -0.561442 -7.595018 8.376939 0.577642 0.759310 11.542689 0.676420 -0.896399 -0.152302 
30.558971 22.868763 82.965668 -2.558234 -0.196859 -114.509890 -2.235545 -4.001448 2.291587 -0.846013 -1.811680 1.086322 -0.846013 -1.811680 1.086323 -0.631238 -1.360273 0.812164 1.595801 -12.153650 -5.309509 0.792237 13.545664 -9.463032 9.261029 4.122202 -1.757050 42.382816 -14.977181 -12.139054 -24.613862 -61.485739 84.626549 -41.483717 38.617678 51.407702 -8.081906 5.153373 -7.045586 -40.343298 -9.328012 20.481811 0.048937 -63.363385 -63.288963 27.881034 11.166500 -73.403073 -4.717986 6.575967 3.508198 -1.808285 -24.371667 -0.022725 5.551061 9.888963 -1.501299 -1.694727 1.504618 -0.113730 3.625924 0.780980 8.026252 -0.305261 -7.320900 6.859034 -0.527112 0.966071 10.931765 1.273056 -1.154117 -0.161586 
30.177263 22.962719 82.811050 -2.724213 -0.132234 -114.363280 -2.323353 -4.161788 2.235747 -0.817879 -1.811487 1.066107 -0.817879 -1.811487 1.066110 -0.610200 -1.360050 0.797092 1.555439 -12.163030 -5.256310 0.738344 13.528037 -9.378148 9.247162 4.257841 -1.774479 42.393560 -14.990498 -12.341297 -24.480711 -61.391140 84.532928 -41.427341 38.574091 51.425345 -8.086008 5.140726 -7.040746 -40.329996 -9.323976 20.465480 -0.093642 -63.348802 -63.268582 28.060850 10.995050 -73.386080 -4.729820 6.316469 7.356701 -3.124538 -23.748240 2.635233 7.551434 9.891392 0.210128 -1.976118 1.214833 -0.102402 3.178687 1.124004 6.195815 0.157114 -7.058425 5.095158 -1.728545 1.099340 10.521820 1.930421 -1.339879 -0.108657 
29.764044 23.303408 82.715919 -2.506095 -0.193984 -114.316637 -2.165859 -3.960669 2.266478 -0.781778 -1.775208 1.022678 -0.781778 -1.775208 1.022682 -0.583317 -1.332720 0.764680 1.522644 -12.257250 -5.171319 0.717984 13.355051 -9.225342 9.216240 4.537520 -1.913877 42.392744 -14.950429 -12.594910 -25.074231 -61.346082 85.094281 -41.290710 38.490179 51.526076 -8.136611 5.107671 -7.085476 -40.278049 -9.307073 20.605120 -0.163420 -63.443407 -63.323094 28.219000 10.935063 -73.263245 -4.814090 6.199807 11.527317 -3.838329 -22.436903 4.232570 9.689165 9.840355 2.065094 -2.279306 0.708679 0.035677 3.413119 1.760051 3.971538 0.664734 -6.962966 3.283435 -3.728432 1.053967 10.008792 2.591703 -1.183942 -0.225749 
29.205826 23.612448 82.646782 -2.198005 -0.225081 -114.220407 -2.018442 -3.674141 2.251469 -0.748992 -1.713695 0.967611 -0.748993 -1.713695 0.967613 -0.558990 -1.286463 0.723556 1.513497 -12.385401 -5.083546 0.745863 13.120744 -9.055861 9.227091 4.792523 -1.977130 42.374149 -14.807546 -12.849381 -26.095749 -61.268340 85.962603 -41.150462 38.430404 51.665033 -8.195208 5.108973 -7.047555 -40.236009 -9.406466 20.727314 -0.293300 -63.559336 -63.302207 28.324533 10.894510 -73.088946 -4.911183 6.186160 15.030673 -4.253638 -20.962387 5.234082 11.375136 9.811230 3.757410 -2.338007 0.170402 0.299985 3.664106 2.387718 1.477337 1.184229 -6.805150 1.453540 -6.014332 1.253666 9.028991 3.272322 -1.169011 -0.363784 
28.817682 24.526897 82.621544 -1.900080 -0.404539 -113.957909 -1.721786 -3.484885 2.071252 -0.742380 -1.658546 0.915858 -0.742380 -1.658545 0.915860 -0.554262 -1.245027 0.684835 1.536438 -12.492827 -5.012967 0.825939 12.926012 -8.906927 9.275161 5.173225 -2.013533 42.352070 -14.856382 -13.092380 -26.989965 -61.216889 86.655115 -41.034031 38.400351 51.777455 -8.252627 5.101981 -7.038450 -40.187935 -9.488769 20.799314 -0.621367 -63.650874 -63.089631 28.341691 10.889651 -72.945198 -4.943301 6.150838 16.906970 -4.511865 -19.647826 6.124659 12.358786 9.797748 4.709064 -1.999654 -0.168894 1.049312 4.361670 2.646318 -1.387614 1.607777 -6.559551 -0.304368 -8.732687 1.745773 7.644041 3.913991 -1.207351 -0.566811 
28.274998 25.360472 82.632759 -1.774037 -0.170315 -113.549675 -1.861573 -3.314139 1.749302 -0.769768 -1.633944 0.884365 -0.769769 -1.633944 0.884369 -0.574923 -1.226577 0.661174 1.592030 -12.538522 -4.979745 0.948426 12.846071 -8.818397 9.315797 5.619598 -2.118379 42.349215 -15.177218 -13.223738 -27.390606 -61.236136 86.903010 -40.999406 38.385755 51.801849 -8.277295 5.116723 -7.088239 -40.132078 -9.544866 20.818075 -0.946767 -63.677171 -62.909539 28.292022 10.883423 -72.847847 -5.278885 6.169636 16.767725 -4.567138 -18.789266 6.537706 12.879555 10.264773 5.874430 -1.686106 -0.824707 1.699240 4.058177 3.099354 -4.432749 2.126243 -6.457075 -1.932099 -10.914781 1.979033 6.313540 4.258465 -1.083558 -1.271304 
28.017286 26.663662 82.659660 -1.854909 0.711922 -113.024679 -2.678909 -3.095650 1.301418 -0.823108 -1.647021 0.890843 -0.823108 -1.647021 0.890839 -0.614888 -1.236470 0.665868 1.659539 -12.516666 -4.995179 1.069087 12.890055 -8.820428 9.303668 5.816197 -2.245118 42.388776 -15.490835 -13.160257 -27.226131 -61.314314 86.663530 -41.045165 38.402155 51.757866 -8.263856 5.184522 -7.159740 -40.075114 -9.615662 20.749278 -1.043047 -63.631244 -62.949571 28.211106 10.872514 -72.797720 -6.340203 6.374474 14.912340 -4.204046 -18.407899 6.131190 12.313739 10.832042 7.367499 -0.812174 -1.501303 2.460544 2.850571 3.646984 -7.176551 2.774212 -6.202386 -3.795320 -12.549283 1.520265 5.670496 3.987627 -0.589261 -2.968383 
27.731390 26.912580 82.711937 -1.446848 0.542929 -112.242117 -2.352319 -2.887167 0.587811 -0.889830 -1.667773 0.932774 -0.889831 -1.667773 0.932772 -0.664782 -1.252193 0.697105 1.725062 -12.447239 -5.050304 1.166509 13.020546 -8.900819 9.249663 5.546034 -2.280561 42.474348 -15.488364 -12.916227 -26.639473 -61.449942 86.058574 -41.180621 38.435483 51.654699 -8.221702 5.248413 -7.200840 -40.012177 -9.660529 20.566237 -0.913688 -63.524789 -63.166006 28.070092 10.841378 -72.817740 -6.034125 6.158348 11.910608 -4.794973 -17.646507 4.971944 10.366882 10.564569 6.702166 1.718468 -1.353934 6.005551 3.330052 3.862607 -9.556807 3.327309 -5.684453 -5.996999 -14.162309 1.758777 5.162511 3.332981 -0.721186 -4.963758 
